<svg width="316" height="139" viewBox="0 0 316 139" fill="none" xmlns="http://www.w3.org/2000/svg">
<path d="M29.875 30.3398H7.69141V48.4805H33.4609V54H0.941406V2.8125H33.1094V8.36719H7.69141V24.8203H29.875V30.3398Z" fill="url(#paint0_linear_4_2)" fill-opacity="0.2"/>
<path d="M53.6055 29.8477L62.043 15.9609H69.6367L57.1914 34.7695L70.0234 54H62.5L53.7109 39.7617L44.9219 54H37.3633L50.1953 34.7695L37.75 15.9609H45.2734L53.6055 29.8477Z" fill="url(#paint1_linear_4_2)" fill-opacity="0.2"/>
<path d="M85.3867 6.75V15.9609H92.4883V20.9883H85.3867V44.5781C85.3867 46.1016 85.7031 47.25 86.3359 48.0234C86.9688 48.7734 88.0469 49.1484 89.5703 49.1484C90.3203 49.1484 91.3516 49.0078 92.6641 48.7266V54C90.9531 54.4688 89.2891 54.7031 87.6719 54.7031C84.7656 54.7031 82.5742 53.8242 81.0977 52.0664C79.6211 50.3086 78.8828 47.8125 78.8828 44.5781V20.9883H71.957V15.9609H78.8828V6.75H85.3867Z" fill="url(#paint2_linear_4_2)" fill-opacity="0.2"/>
<path d="M121.703 28.7578L106.059 48.4805H133.586V54H97.6211V48.9727L114.531 28.3711L97.6211 7.875V2.8125H131.863V8.36719H106.129L121.703 27.9141V28.7578Z" fill="url(#paint3_linear_4_2)" fill-opacity="0.2"/>
<path d="M147.402 15.9609L147.613 20.7422C150.52 17.0859 154.316 15.2578 159.004 15.2578C167.043 15.2578 171.098 19.793 171.168 28.8633V54H164.664V28.8281C164.641 26.0859 164.008 24.0586 162.766 22.7461C161.547 21.4336 159.637 20.7773 157.035 20.7773C154.926 20.7773 153.074 21.3398 151.48 22.4648C149.887 23.5898 148.645 25.0664 147.754 26.8945V54H141.25V15.9609H147.402Z" fill="url(#paint4_linear_4_2)" fill-opacity="0.2"/>
<path d="M179.395 34.6641C179.395 28.8281 180.777 24.1406 183.543 20.6016C186.309 17.0391 189.93 15.2578 194.406 15.2578C198.859 15.2578 202.387 16.7812 204.988 19.8281V0H211.492V54H205.516L205.199 49.9219C202.598 53.1094 198.977 54.7031 194.336 54.7031C189.93 54.7031 186.332 52.8984 183.543 49.2891C180.777 45.6797 179.395 40.9688 179.395 35.1562V34.6641ZM185.898 35.4023C185.898 39.7148 186.789 43.0898 188.57 45.5273C190.352 47.9648 192.812 49.1836 195.953 49.1836C200.078 49.1836 203.09 47.332 204.988 43.6289V26.1562C203.043 22.5703 200.055 20.7773 196.023 20.7773C192.836 20.7773 190.352 22.0078 188.57 24.4688C186.789 26.9297 185.898 30.5742 185.898 35.4023Z" fill="url(#paint5_linear_4_2)" fill-opacity="0.2"/>
<path d="M237.402 54.7031C232.246 54.7031 228.051 53.0156 224.816 49.6406C221.582 46.2422 219.965 41.707 219.965 36.0352V34.8398C219.965 31.0664 220.68 27.7031 222.109 24.75C223.562 21.7734 225.578 19.4531 228.156 17.7891C230.758 16.1016 233.57 15.2578 236.594 15.2578C241.539 15.2578 245.383 16.8867 248.125 20.1445C250.867 23.4023 252.238 28.0664 252.238 34.1367V36.8438H226.469C226.562 40.5938 227.652 43.6289 229.738 45.9492C231.848 48.2461 234.52 49.3945 237.754 49.3945C240.051 49.3945 241.996 48.9258 243.59 47.9883C245.184 47.0508 246.578 45.8086 247.773 44.2617L251.746 47.3555C248.559 52.2539 243.777 54.7031 237.402 54.7031ZM236.594 20.6016C233.969 20.6016 231.766 21.5625 229.984 23.4844C228.203 25.3828 227.102 28.0547 226.68 31.5H245.734V31.0078C245.547 27.7031 244.656 25.1484 243.062 23.3438C241.469 21.5156 239.312 20.6016 236.594 20.6016Z" fill="url(#paint6_linear_4_2)" fill-opacity="0.2"/>
<path d="M265.949 15.9609L266.16 20.7422C269.066 17.0859 272.863 15.2578 277.551 15.2578C285.59 15.2578 289.645 19.793 289.715 28.8633V54H283.211V28.8281C283.188 26.0859 282.555 24.0586 281.312 22.7461C280.094 21.4336 278.184 20.7773 275.582 20.7773C273.473 20.7773 271.621 21.3398 270.027 22.4648C268.434 23.5898 267.191 25.0664 266.301 26.8945V54H259.797V15.9609H265.949Z" fill="url(#paint7_linear_4_2)" fill-opacity="0.2"/>
<path d="M308.348 6.75V15.9609H315.449V20.9883H308.348V44.5781C308.348 46.1016 308.664 47.25 309.297 48.0234C309.93 48.7734 311.008 49.1484 312.531 49.1484C313.281 49.1484 314.312 49.0078 315.625 48.7266V54C313.914 54.4688 312.25 54.7031 310.633 54.7031C307.727 54.7031 305.535 53.8242 304.059 52.0664C302.582 50.3086 301.844 47.8125 301.844 44.5781V20.9883H294.918V15.9609H301.844V6.75H308.348Z" fill="url(#paint8_linear_4_2)" fill-opacity="0.2"/>
<path d="M9.66016 86.8125L26.3945 128.578L43.1289 86.8125H51.8828V138H45.1328V118.066L45.7656 96.5508L28.9609 138H23.793L7.02344 96.6562L7.69141 118.066V138H0.941406V86.8125H9.66016Z" fill="url(#paint9_linear_4_2)" fill-opacity="0.2"/>
<path d="M86.2656 138C85.8906 137.25 85.5859 135.914 85.3516 133.992C82.3281 137.133 78.7188 138.703 74.5234 138.703C70.7734 138.703 67.6914 137.648 65.2773 135.539C62.8867 133.406 61.6914 130.711 61.6914 127.453C61.6914 123.492 63.1914 120.422 66.1914 118.242C69.2148 116.039 73.457 114.938 78.918 114.938H85.2461V111.949C85.2461 109.676 84.5664 107.871 83.207 106.535C81.8477 105.176 79.8438 104.496 77.1953 104.496C74.875 104.496 72.9297 105.082 71.3594 106.254C69.7891 107.426 69.0039 108.844 69.0039 110.508H62.4648C62.4648 108.609 63.1328 106.781 64.4688 105.023C65.8281 103.242 67.6562 101.836 69.9531 100.805C72.2734 99.7734 74.8164 99.2578 77.582 99.2578C81.9648 99.2578 85.3984 100.359 87.8828 102.562C90.3672 104.742 91.6562 107.754 91.75 111.598V129.105C91.75 132.598 92.1953 135.375 93.0859 137.438V138H86.2656ZM75.4727 133.043C77.5117 133.043 79.4453 132.516 81.2734 131.461C83.1016 130.406 84.4258 129.035 85.2461 127.348V119.543H80.1484C72.1797 119.543 68.1953 121.875 68.1953 126.539C68.1953 128.578 68.875 130.172 70.2344 131.32C71.5938 132.469 73.3398 133.043 75.4727 133.043Z" fill="url(#paint10_linear_4_2)" fill-opacity="0.2"/>
<path d="M110.77 90.75V99.9609H117.871V104.988H110.77V128.578C110.77 130.102 111.086 131.25 111.719 132.023C112.352 132.773 113.43 133.148 114.953 133.148C115.703 133.148 116.734 133.008 118.047 132.727V138C116.336 138.469 114.672 138.703 113.055 138.703C110.148 138.703 107.957 137.824 106.48 136.066C105.004 134.309 104.266 131.812 104.266 128.578V104.988H97.3398V99.9609H104.266V90.75H110.77Z" fill="url(#paint11_linear_4_2)" fill-opacity="0.2"/>
<path d="M132.004 104.566C134.887 101.027 138.637 99.2578 143.254 99.2578C151.293 99.2578 155.348 103.793 155.418 112.863V138H148.914V112.828C148.891 110.086 148.258 108.059 147.016 106.746C145.797 105.434 143.887 104.777 141.285 104.777C139.176 104.777 137.324 105.34 135.73 106.465C134.137 107.59 132.895 109.066 132.004 110.895V138H125.5V84H132.004V104.566Z" fill="url(#paint12_linear_4_2)" fill-opacity="0.2"/>
<defs>
<linearGradient id="paint0_linear_4_2" x1="-5" y1="1.00001" x2="325" y2="156" gradientUnits="userSpaceOnUse">
<stop stop-color="#00FFD1"/>
<stop offset="0.385417" stop-color="#2400FF"/>
</linearGradient>
<linearGradient id="paint1_linear_4_2" x1="-5" y1="1.00001" x2="325" y2="156" gradientUnits="userSpaceOnUse">
<stop stop-color="#00FFD1"/>
<stop offset="0.385417" stop-color="#2400FF"/>
</linearGradient>
<linearGradient id="paint2_linear_4_2" x1="-5" y1="1.00001" x2="325" y2="156" gradientUnits="userSpaceOnUse">
<stop stop-color="#00FFD1"/>
<stop offset="0.385417" stop-color="#2400FF"/>
</linearGradient>
<linearGradient id="paint3_linear_4_2" x1="-5" y1="1.00001" x2="325" y2="156" gradientUnits="userSpaceOnUse">
<stop stop-color="#00FFD1"/>
<stop offset="0.385417" stop-color="#2400FF"/>
</linearGradient>
<linearGradient id="paint4_linear_4_2" x1="-5" y1="1.00001" x2="325" y2="156" gradientUnits="userSpaceOnUse">
<stop stop-color="#00FFD1"/>
<stop offset="0.385417" stop-color="#2400FF"/>
</linearGradient>
<linearGradient id="paint5_linear_4_2" x1="-5" y1="1.00001" x2="325" y2="156" gradientUnits="userSpaceOnUse">
<stop stop-color="#00FFD1"/>
<stop offset="0.385417" stop-color="#2400FF"/>
</linearGradient>
<linearGradient id="paint6_linear_4_2" x1="-5" y1="1.00001" x2="325" y2="156" gradientUnits="userSpaceOnUse">
<stop stop-color="#00FFD1"/>
<stop offset="0.385417" stop-color="#2400FF"/>
</linearGradient>
<linearGradient id="paint7_linear_4_2" x1="-5" y1="1.00001" x2="325" y2="156" gradientUnits="userSpaceOnUse">
<stop stop-color="#00FFD1"/>
<stop offset="0.385417" stop-color="#2400FF"/>
</linearGradient>
<linearGradient id="paint8_linear_4_2" x1="-5" y1="1.00001" x2="325" y2="156" gradientUnits="userSpaceOnUse">
<stop stop-color="#00FFD1"/>
<stop offset="0.385417" stop-color="#2400FF"/>
</linearGradient>
<linearGradient id="paint9_linear_4_2" x1="-5" y1="1.00001" x2="325" y2="156" gradientUnits="userSpaceOnUse">
<stop stop-color="#00FFD1"/>
<stop offset="0.385417" stop-color="#2400FF"/>
</linearGradient>
<linearGradient id="paint10_linear_4_2" x1="-5" y1="1.00001" x2="325" y2="156" gradientUnits="userSpaceOnUse">
<stop stop-color="#00FFD1"/>
<stop offset="0.385417" stop-color="#2400FF"/>
</linearGradient>
<linearGradient id="paint11_linear_4_2" x1="-5" y1="1.00001" x2="325" y2="156" gradientUnits="userSpaceOnUse">
<stop stop-color="#00FFD1"/>
<stop offset="0.385417" stop-color="#2400FF"/>
</linearGradient>
<linearGradient id="paint12_linear_4_2" x1="-5" y1="1.00001" x2="325" y2="156" gradientUnits="userSpaceOnUse">
<stop stop-color="#00FFD1"/>
<stop offset="0.385417" stop-color="#2400FF"/>
</linearGradient>
</defs>
</svg>
